<svg width="24" height="25" viewBox="0 0 24 25" fill="none" xmlns="http://www.w3.org/2000/svg">
<g clip-path="url(#clip0_4085_60366)">
<path d="M19.7789 6.89547C20.0005 6.89547 20.1964 6.88552 20.3975 6.89547C21.0161 6.9303 21.5418 7.17413 22.0006 7.57222C22.5007 8.01012 22.8512 8.53261 23.0058 9.17453C23.1296 9.68707 23.0883 10.1847 22.9131 10.6823C22.6965 11.2993 22.2687 11.7571 21.7738 12.1801C21.0057 12.8419 20.2325 13.5038 19.485 14.1855C19.2428 14.4094 19.052 14.6881 18.8613 14.9618C18.4644 15.5241 18.0881 16.1013 17.8303 16.7432C17.5984 17.3155 17.4386 17.9076 17.2633 18.4948C16.8045 20.0274 16.0055 21.376 14.8353 22.5105C14.2219 23.1027 13.5672 23.65 12.7991 24.0481C11.8094 24.5607 10.7578 24.8891 9.6392 24.9787C8.93813 25.0334 8.23706 24.9787 7.54115 24.8642C6.66998 24.7149 5.86066 24.4064 5.05649 24.068C4.30388 23.7545 3.58735 23.3813 2.94299 22.8887C2.06665 22.2219 1.28311 21.4705 0.772776 20.5002C0.164498 19.3358 -0.0932467 18.1017 0.0304708 16.793C0.128414 15.7729 0.422243 14.8075 0.834635 13.872C1.22641 12.9813 1.61818 12.0955 1.99449 11.1998C2.16975 10.7818 2.46874 10.4584 2.77803 10.1399C2.94299 9.97071 3.12856 9.81645 3.30898 9.66717C3.49456 9.51291 3.71622 9.40343 3.95335 9.33377C4.0152 9.31386 4.03582 9.28898 4.03582 9.22429C4.0616 8.12955 4.08737 7.03978 4.11315 5.94503C4.13377 5.18866 4.15954 4.43727 4.16985 3.6809C4.18016 3.19324 4.23687 2.72051 4.44822 2.27266C4.79359 1.54117 5.31939 1.00873 6.13902 0.77485C7.12876 0.491211 8.05149 0.62059 8.88143 1.19782C9.40723 1.56108 9.7526 2.06366 9.92787 2.67573C10.0413 3.05889 10.098 3.43707 10.0774 3.83018V4.12875C10.1031 4.07899 10.1238 4.04913 10.1341 4.02425C10.4794 3.27286 10.8248 2.52644 11.1702 1.77505C11.3558 1.37696 11.6393 1.04854 11.9537 0.740017C12.428 0.277238 13.0105 0.0582892 13.6652 0.00852802C14.2064 -0.036257 14.7271 0.0980981 15.2013 0.346904C15.9436 0.735041 16.4952 1.28241 16.7066 2.0985C16.7375 2.21792 16.7736 2.33735 16.8097 2.46673C18.0623 2.31745 19.0469 2.81506 19.7325 3.78042C20.4387 4.77565 20.3459 5.84551 19.7686 6.89547H19.7789ZM9.17526 8.06486C9.16495 8.06486 9.15979 8.05988 9.14948 8.0549V7.94543C9.19072 6.52226 9.23196 5.09412 9.26804 3.67095C9.28351 3.08377 9.11855 2.54635 8.71647 2.10347C8.24222 1.58098 7.61848 1.39686 6.91226 1.42672C6.49986 1.44165 6.1184 1.56108 5.79364 1.81983C5.25238 2.25276 5.02556 2.83496 5.00494 3.48683C4.95855 4.91498 4.93278 6.34312 4.89669 7.77127C4.88123 8.45797 4.86061 9.1397 4.84514 9.8264C4.84514 9.911 4.81937 9.93588 4.73174 9.94583C4.62864 9.9508 4.52038 9.97071 4.42244 10.0006C3.66983 10.2295 3.15434 10.747 2.82442 11.3889C2.36048 12.2995 1.99449 13.2549 1.58209 14.1905C1.27796 14.8772 1.04083 15.5838 0.917113 16.3202C0.767621 17.1911 0.783086 18.0569 1.01506 18.9128C1.35012 20.1618 2.08212 21.1719 3.10279 21.988C4.37089 23.0032 5.83488 23.65 7.42775 24.0083C9.32475 24.4363 11.1135 24.1427 12.7579 23.1325C14.2992 22.1871 15.3869 20.8634 16.1189 19.2561C16.3663 18.7088 16.5055 18.1315 16.6705 17.5593C16.9798 16.5143 17.4437 15.539 18.0829 14.6383C18.3458 14.2701 18.5933 13.8969 18.9386 13.5933C19.7737 12.8569 20.6243 12.1303 21.4542 11.3889C22.0006 10.9012 22.3151 10.3091 22.2429 9.57262C22.1759 8.88094 21.7944 8.35845 21.2119 7.97529C20.7428 7.66179 20.2222 7.5971 19.6758 7.74141C19.3046 7.84093 18.9747 8.0151 18.686 8.25395C18.3407 8.53759 17.9953 8.82123 17.6551 9.10487C17.5056 9.22927 17.3509 9.35367 17.2014 9.4731C17.2014 9.41836 17.2272 9.37855 17.253 9.33874C17.8509 8.39328 18.4592 7.4528 19.052 6.50236C19.6139 5.5967 19.5881 4.42234 18.5262 3.65602C17.7685 3.10865 16.7323 3.02405 15.9075 3.76549C15.8818 3.79038 15.856 3.8053 15.8045 3.84511C15.8251 3.79037 15.8405 3.76052 15.8508 3.73564C16.0158 3.30769 16.0725 2.86482 15.9746 2.41199C15.8045 1.63572 15.2683 1.16796 14.526 0.904229C13.8456 0.665375 13.2012 0.749969 12.6342 1.2028C12.3197 1.4516 12.0878 1.7651 11.9228 2.12338C11.0774 3.95459 10.2372 5.7858 9.39176 7.61701C9.32475 7.76131 9.25773 7.90562 9.19072 8.04993L9.17526 8.06486Z" fill="white"/>
<path d="M9.17534 8.06513C9.24235 7.92082 9.30936 7.77651 9.37638 7.6322C10.2218 5.80099 11.062 3.96978 11.9074 2.13857C12.0724 1.78029 12.3044 1.4668 12.6188 1.21799C13.191 0.765167 13.8302 0.675597 14.5107 0.919427C15.253 1.18316 15.7891 1.65092 15.9592 2.42719C16.0571 2.87504 16.0004 3.31791 15.8355 3.75084C15.8252 3.77572 15.8148 3.80557 15.7891 3.86031C15.8355 3.8205 15.8664 3.8006 15.8922 3.78069C16.7118 3.03428 17.7531 3.12385 18.5109 3.67122C19.5728 4.43754 19.5985 5.6119 19.0367 6.51756C18.449 7.46799 17.8407 8.40848 17.2376 9.35394C17.2118 9.39375 17.1912 9.43356 17.186 9.4883C17.3355 9.36389 17.4902 9.24447 17.6397 9.12006C17.9851 8.83642 18.3253 8.54781 18.6707 8.26915C18.9645 8.03029 19.2892 7.85613 19.6604 7.75661C20.2068 7.6123 20.7275 7.67699 21.1966 7.99049C21.7739 8.37862 22.1605 8.89614 22.2275 9.58782C22.2997 10.3243 21.9801 10.9214 21.4388 11.4041C20.6089 12.1455 19.7583 12.8721 18.9232 13.6085C18.583 13.9121 18.3304 14.2853 18.0675 14.6535C17.4335 15.5542 16.9644 16.5245 16.6551 17.5745C16.485 18.1467 16.351 18.724 16.1035 19.2713C15.3767 20.8786 14.2838 22.1973 12.7425 23.1477C11.0981 24.1629 9.30421 24.4564 7.41236 24.0235C5.8195 23.6603 4.35551 23.0184 3.08741 22.0032C2.06674 21.1871 1.33474 20.177 0.999672 18.928C0.767702 18.0721 0.757392 17.2062 0.901729 16.3354C1.02545 15.599 1.26257 14.8924 1.56671 14.2057C1.9791 13.2701 2.33995 12.3098 2.80904 11.4041C3.13895 10.7622 3.6596 10.2447 4.40706 10.0158C4.505 9.98591 4.61325 9.966 4.71635 9.96103C4.80399 9.95605 4.82976 9.92619 4.82976 9.8416C4.84522 9.1549 4.86069 8.47317 4.88131 7.78646C4.91739 6.35832 4.94317 4.93018 4.98956 3.50203C5.01018 2.85016 5.237 2.26795 5.77826 1.83503C6.10302 1.57627 6.48448 1.46182 6.89687 1.44192C7.59794 1.41206 8.22684 1.59618 8.70109 2.11867C9.10317 2.56652 9.26813 3.10394 9.25266 3.68615C9.21658 5.10932 9.17534 6.53746 9.1341 7.96063V8.0701C9.14441 8.0701 9.14956 8.07508 9.15987 8.08006L9.17534 8.06513ZM4.79883 10.9961C4.74213 11.011 4.69058 11.0209 4.64418 11.0408C4.19571 11.2498 3.90188 11.6081 3.70599 12.0311C3.30391 12.9069 2.93276 13.7976 2.5513 14.6784C2.20592 15.4795 1.95848 16.3056 1.91724 17.1814C1.86054 18.4154 2.22654 19.5102 3.05132 20.4606C3.4998 20.9781 4.03591 21.4061 4.63387 21.7594C5.67001 22.3715 6.77316 22.8243 7.97425 23.0432C9.20111 23.2672 10.3816 23.1129 11.5105 22.6004C12.2116 22.2819 12.8302 21.849 13.3766 21.3215C14.1653 20.5602 14.7787 19.6893 15.1808 18.6842C15.3509 18.2512 15.4643 17.8034 15.5983 17.3555C15.9901 16.0418 16.5778 14.8277 17.4025 13.713C17.8304 13.1358 18.3717 12.6631 18.9129 12.1953C19.5315 11.6579 20.1604 11.1304 20.7584 10.5781C21.2378 10.1352 21.3306 9.6127 20.9027 9.11011C20.6037 8.75681 20.2584 8.63738 19.8563 8.80159C19.6707 8.88121 19.4903 8.99068 19.3305 9.12006C18.1088 10.1203 16.8922 11.1254 15.6757 12.1256C15.4798 12.2898 15.2839 12.459 15.0725 12.6033C14.8509 12.7477 14.5416 12.678 14.3766 12.4789C14.2117 12.2799 14.2168 11.9913 14.3921 11.7922C14.4488 11.7275 14.5003 11.6629 14.5467 11.5932C15.6705 9.8217 16.7994 8.0502 17.918 6.2787C18.0469 6.07966 18.1706 5.87066 18.2531 5.65171C18.3717 5.33822 18.351 5.01477 18.1191 4.74108C17.9387 4.52711 17.7067 4.39275 17.4386 4.30816C17.2891 4.26338 17.1448 4.28328 16.9953 4.33802C16.7221 4.44252 16.5159 4.63161 16.3664 4.87046C15.9489 5.52731 15.5365 6.18416 15.1241 6.841C14.4436 7.92082 13.7632 9.00561 13.0879 10.0854C12.8302 10.4984 12.5879 10.9164 12.3353 11.3295C12.2631 11.4539 12.16 11.5385 12.0208 11.5783C11.7992 11.643 11.5981 11.5932 11.4435 11.424C11.2837 11.2498 11.2631 11.0408 11.361 10.8318C11.6909 10.1203 12.0208 9.40868 12.3508 8.69709C13.1652 6.9455 13.9745 5.18893 14.789 3.43734C14.9024 3.19351 14.9488 2.93973 14.9076 2.68097C14.8303 2.23312 14.5003 2.02412 14.0931 1.88977C13.7529 1.78029 13.4642 1.86489 13.2322 2.11369C13.1034 2.24805 12.99 2.40728 12.9126 2.5715C12.3301 3.81553 11.7631 5.05955 11.1857 6.30358C10.5208 7.74666 9.86094 9.18973 9.1908 10.6278C9.13925 10.7373 9.05677 10.8418 8.95883 10.9164C8.73717 11.0757 8.49489 11.016 8.27323 10.9065C8.06703 10.802 7.98456 10.6179 7.99487 10.3939C8.01033 9.83165 8.03095 9.26935 8.04641 8.71202C8.09281 7.05498 8.1392 5.40291 8.18044 3.74586C8.18044 3.58662 8.17529 3.42241 8.1392 3.26815C7.98971 2.63121 7.32473 2.29781 6.68552 2.53169C6.51541 2.5914 6.39685 2.6959 6.30406 2.84518C6.17519 3.0492 6.11333 3.27313 6.10817 3.51198C6.05662 5.48252 6.01023 7.44809 5.95868 9.41863C5.93806 10.2695 5.9226 11.1254 5.89682 11.9764C5.88651 12.2948 5.63908 12.5187 5.32463 12.5088C5.02049 12.4988 4.79368 12.265 4.79368 11.9515C4.79368 11.7823 4.80399 11.6081 4.80399 11.4389V10.9961H4.79883Z" fill="black"/>
<path d="M4.79887 10.9961V11.4389C4.79887 11.6081 4.78856 11.7823 4.78856 11.9515C4.78856 12.265 5.01537 12.4989 5.31951 12.5088C5.6288 12.5188 5.88139 12.2948 5.8917 11.9764C5.91748 11.1255 5.93294 10.2696 5.95356 9.41864C6.00511 7.4481 6.05151 5.48254 6.10306 3.512C6.10821 3.27314 6.17522 3.04922 6.29894 2.8452C6.38657 2.70089 6.51029 2.59639 6.6804 2.5317C7.31961 2.3028 7.98459 2.63122 8.13408 3.26817C8.17017 3.42243 8.18048 3.58664 8.17532 3.74587C8.13408 5.40292 8.08769 7.05499 8.0413 8.71204C8.02583 9.27434 8.01037 9.83664 7.98975 10.394C7.98459 10.6179 8.06192 10.802 8.26811 10.9065C8.48977 11.016 8.73205 11.0757 8.95371 10.9165C9.05166 10.8468 9.13413 10.7373 9.18568 10.6278C9.85582 9.18974 10.5156 7.74667 11.1806 6.3036C11.7528 5.05957 12.325 3.81056 12.9075 2.57151C12.9848 2.4073 13.0982 2.24806 13.2271 2.11371C13.4591 1.8649 13.7478 1.78031 14.088 1.88978C14.4952 2.02414 14.8251 2.23313 14.9025 2.68098C14.9489 2.94472 14.9025 3.1985 14.7839 3.43735C13.9746 5.18895 13.1601 6.94551 12.3456 8.69711C12.0157 9.40869 11.6858 10.1203 11.3559 10.8319C11.258 11.0409 11.2734 11.2499 11.4384 11.424C11.593 11.5932 11.7941 11.643 12.0157 11.5783C12.1549 11.5385 12.258 11.4489 12.3302 11.3295C12.5776 10.9115 12.825 10.4935 13.0828 10.0854C13.7581 9.00065 14.4385 7.92083 15.119 6.84102C15.5314 6.18417 15.9438 5.52235 16.3613 4.87048C16.5108 4.63162 16.717 4.4475 16.9902 4.33803C17.1345 4.28329 17.2789 4.26339 17.4335 4.30817C17.7016 4.39277 17.9335 4.52712 18.114 4.7411C18.3459 5.01478 18.3666 5.33325 18.248 5.65172C18.1655 5.87067 18.0366 6.07967 17.9129 6.27872C16.7943 8.05021 15.6654 9.82171 14.5416 11.5932C14.4952 11.6629 14.4437 11.7325 14.387 11.7923C14.2117 11.9863 14.2066 12.2749 14.3715 12.479C14.5365 12.678 14.8458 12.7477 15.0674 12.6034C15.2788 12.464 15.4747 12.2899 15.6705 12.1256C16.8871 11.1205 18.1037 10.1153 19.3254 9.12008C19.48 8.9907 19.6604 8.88122 19.8512 8.80161C20.2532 8.63739 20.5986 8.75682 20.8976 9.11012C21.3203 9.61769 21.2327 10.1352 20.7533 10.5781C20.1553 11.1354 19.5264 11.6579 18.9078 12.1953C18.3666 12.6631 17.8253 13.1358 17.3974 13.713C16.5726 14.8227 15.985 16.0419 15.5932 17.3555C15.4592 17.7984 15.3458 18.2512 15.1757 18.6842C14.7787 19.6893 14.1602 20.5602 13.3715 21.3215C12.825 21.849 12.2065 22.2819 11.5054 22.6004C10.3765 23.1179 9.19599 23.2672 7.96913 23.0432C6.77319 22.8243 5.66489 22.3715 4.62875 21.7594C4.03079 21.4061 3.49983 20.9831 3.0462 20.4606C2.22657 19.5102 1.85542 18.4155 1.91212 17.1814C1.95336 16.3056 2.2008 15.4796 2.54618 14.6784C2.92764 13.7926 3.29879 12.9019 3.70087 12.0311C3.89676 11.6131 4.19059 11.2499 4.63906 11.0409C4.68546 11.021 4.73701 11.011 4.79371 10.9961H4.79887Z" fill="url(#paint0_linear_4085_60366)"/>
</g>
<defs>
<linearGradient id="paint0_linear_4085_60366" x1="6.6438" y1="-0.185258" x2="13.8989" y2="22.2669" gradientUnits="userSpaceOnUse">
<stop stop-color="#76F951"/>
<stop offset="1" stop-color="#27D7D6"/>
</linearGradient>
<clipPath id="clip0_4085_60366">
<rect width="23.0769" height="25" fill="white"/>
</clipPath>
</defs>
</svg>
